<svg id="visual" viewBox="0 0 960 540" width="960" height="540" xmlns="http://www.w3.org/2000/svg" xmlns:xlink="http://www.w3.org/1999/xlink" version="1.1"><rect x="0" y="0" width="960" height="540" fill="#002233"></rect><path d="M0 305L20 331C40 357 80 409 120 423.8C160 438.7 200 416.3 240 407.2C280 398 320 402 360 390C400 378 440 350 480 336.5C520 323 560 324 600 347.7C640 371.3 680 417.7 720 410.3C760 403 800 342 840 317C880 292 920 303 940 308.5L960 314L960 541L940 541C920 541 880 541 840 541C800 541 760 541 720 541C680 541 640 541 600 541C560 541 520 541 480 541C440 541 400 541 360 541C320 541 280 541 240 541C200 541 160 541 120 541C80 541 40 541 20 541L0 541Z" fill="#0066FF" stroke-linecap="round" stroke-linejoin="miter"></path></svg>